<?xml version="1.0" standalone="no"?>
<!DOCTYPE svg PUBLIC "-//W3C//DTD SVG 20010904//EN"
 "http://www.w3.org/TR/2001/REC-SVG-20010904/DTD/svg10.dtd">
<svg version="1.0" xmlns="http://www.w3.org/2000/svg"
 width="200.000000pt" height="100.000000pt" viewBox="0 0 200.000000 100.000000"
 preserveAspectRatio="xMidYMid meet">

<g transform="translate(0.000000,100.000000) scale(0.100000,-0.100000)"
fill="#000000" stroke="none">
<path d="M253 682 c1 -19 5 -36 9 -38 10 -7 9 26 -2 51 -7 16 -9 14 -7 -13z"/>
<path d="M351 664 c-30 -38 -26 -55 4 -19 23 28 31 45 21 45 -3 0 -14 -12 -25
-26z"/>
<path d="M140 654 c0 -8 43 -43 54 -44 5 0 3 7 -4 16 -15 17 -50 38 -50 28z"/>
<path d="M394 645 c-4 -9 1 -36 11 -61 18 -48 16 -53 -27 -72 -25 -10 -28 -10
-28 9 0 27 -44 69 -72 69 -40 0 -68 -27 -68 -66 0 -32 -2 -34 -36 -34 l-36 0
4 56 c2 46 0 59 -15 68 -14 9 -21 7 -31 -7 -14 -18 -32 -155 -21 -165 3 -3 36
-11 73 -17 l67 -11 6 -67 c3 -37 9 -70 12 -74 9 -8 9 50 1 110 l-7 46 -56 7
c-73 9 -92 19 -87 47 3 12 8 43 11 70 4 34 11 47 22 47 13 0 15 -9 10 -59 -7
-65 -2 -71 70 -71 17 0 35 -4 38 -10 12 -19 61 -10 130 26 39 20 71 37 73 39
2 1 -4 20 -12 40 -18 41 -20 71 -8 79 8 4 21 -18 53 -89 7 -16 15 -33 17 -37
2 -5 -28 -23 -65 -41 -71 -35 -73 -37 -59 -102 3 -16 8 -41 11 -54 2 -13 7
-26 11 -30 4 -3 4 10 0 29 -4 19 -9 53 -12 75 l-6 40 55 23 c81 34 82 38 48
123 -22 56 -34 75 -50 77 -12 2 -24 -3 -27 -13z m-86 -81 c47 -33 14 -112 -42
-98 -48 12 -62 70 -23 97 28 20 38 20 65 1z"/>
<path d="M566 604 c-10 -35 -36 -165 -36 -185 0 -16 7 -19 43 -18 74 1 109 19
135 69 46 91 20 141 -75 148 -53 4 -62 2 -67 -14z m92 -76 c4 -36 -14 -68 -39
-68 -19 0 -20 4 -14 43 9 53 13 59 33 55 10 -2 18 -15 20 -30z"/>
<path d="M767 613 c-3 -5 -11 -43 -18 -86 -9 -56 -10 -83 -3 -95 27 -43 122
-40 150 4 9 13 25 59 34 100 15 62 15 76 4 81 -35 13 -49 -2 -64 -71 -15 -71
-39 -101 -60 -80 -8 8 -7 29 4 75 8 35 12 67 10 71 -7 10 -51 10 -57 1z"/>
<path d="M982 608 c-10 -14 -42 -156 -42 -190 0 -15 6 -19 28 -16 21 2 28 9
30 30 2 14 10 32 17 38 15 12 16 10 40 -57 5 -14 61 -18 69 -5 2 4 -5 36 -17
71 l-22 63 37 30 c21 16 35 34 32 39 -12 20 -59 8 -91 -23 l-33 -32 0 32 c0
25 -4 32 -19 32 -10 0 -23 -6 -29 -12z"/>
<path d="M1197 613 c-15 -24 -47 -197 -38 -206 17 -17 46 -2 56 30 7 27 15 34
45 39 51 9 80 40 80 85 0 21 -5 41 -11 44 -18 12 -126 18 -132 8z m81 -65 c-7
-19 -38 -22 -38 -4 0 10 9 16 21 16 12 0 19 -5 17 -12z"/>
<path d="M1430 613 c-53 -19 -98 -104 -84 -158 13 -54 82 -71 141 -35 66 40
86 140 37 179 -26 20 -62 26 -94 14z m53 -91 c-1 -41 -20 -64 -47 -60 -27 4
-33 41 -11 74 11 17 24 24 38 22 18 -2 22 -9 20 -36z"/>
<path d="M1633 605 c-37 -16 -73 -78 -73 -125 0 -20 9 -40 26 -57 21 -21 32
-25 65 -20 53 7 88 31 105 72 43 105 -22 174 -123 130z m71 -61 c3 -8 -1 -31
-9 -50 -11 -28 -19 -35 -37 -32 -46 6 -31 98 16 98 13 0 27 -7 30 -16z"/>
<path d="M1811 603 c-9 -18 -41 -164 -41 -189 0 -11 17 -14 70 -14 64 0 71 2
79 23 12 31 6 37 -40 37 -21 0 -39 3 -39 8 0 4 7 35 15 70 8 35 13 68 9 73 -9
15 -43 10 -53 -8z"/>
</g>
</svg>
