<svg width="24" height="24" viewBox="0 0 24 24" fill="none" xmlns="http://www.w3.org/2000/svg">
<path d="M8.39062 18.4902V8.33022C8.39062 7.93022 8.51062 7.54022 8.73062 7.21022L11.4606 3.15022C11.8906 2.50022 12.9606 2.04022 13.8706 2.38022C14.8506 2.71022 15.5006 3.81022 15.2906 4.79022L14.7706 8.06022C14.7306 8.36022 14.8106 8.63022 14.9806 8.84022C15.1506 9.03022 15.4006 9.15022 15.6706 9.15022H19.7806C20.5706 9.15022 21.2506 9.47022 21.6506 10.0302C22.0306 10.5702 22.1006 11.2702 21.8506 11.9802L19.3906 19.4702C19.0806 20.7102 17.7306 21.7202 16.3906 21.7202H12.4906C11.8206 21.7202 10.8806 21.4902 10.4506 21.0602L9.17062 20.0702C8.68062 19.7002 8.39062 19.1102 8.39062 18.4902Z" fill="#292D32"/>
<path d="M5.21 6.37988H4.18C2.63 6.37988 2 6.97988 2 8.45988V18.5199C2 19.9999 2.63 20.5999 4.18 20.5999H5.21C6.76 20.5999 7.39 19.9999 7.39 18.5199V8.45988C7.39 6.97988 6.76 6.37988 5.21 6.37988Z" fill="#292D32"/>
</svg>
